<svg viewBox="0 0 24 24" xmlns="http://www.w3.org/2000/svg"><path d="m13.91 18.41-.41-2.44c-.31.13-.67.24-1.1.32l-1.33.12c-1.28-.01-2.28-.41-2.99-1.18-.71-.78-1.08-1.84-1.08-3.2.03-1.49.42-2.61 1.18-3.34.75-.74 1.71-1.11 2.87-1.1.53 0 .99.05 1.39.15l1.06.34.58-2.49c-.26-.15-.66-.28-1.2-.4-.54-.12-1.19-.19-1.94-.19C8.96 5 7.32 5.64 6 6.89 4.72 8.13 4.05 9.9 4 12.21c0 1.95.56 3.56 1.68 4.83 1.11 1.26 2.77 1.92 4.98 1.96.77 0 1.44-.07 2.01-.2.56-.12.98-.25 1.24-.39ZM15.586 12l-1.414 1.414 1.414 1.414L17 13.414l1.414 1.414 1.414-1.414L18.414 12l1.414-1.414-1.414-1.414L17 10.586l-1.414-1.414-1.414 1.414L15.586 12Z" fill="#8033cc"/></svg>
